# xmcd
# 
# Track frame offsets:
#     183
#     30483
#     52908
#     67533
#     86433
#     107058
#     130008
#     163983
#     189370
#     229008
#     245358
#     288933
#     314933
# 
# Disc length: 4606
# 
# Revision: 5
# Processed by: cddbd v1.5.2PL0 Copyright (c) Steve Scherf et al.
# Submitted via: fre:ac v1.1beta1pre5
# 
DISCID=a511fc0d
DTITLE=Various Artist - The Best of Boccherini CD1
DYEAR=0
DGENRE=
TTITLE0=Artistas varios - Franz Xaver Pokorny: Flute Concerto in D, Op. 27 (formerly attributed to Luigi Boccherini) - I. Allegro moderato
TTITLE1=Artistas varios - Franz Xaver Pokorny: Flute Concerto in D, Op. 27 (formerly attributed to Luigi Boccherini) - II. Adagio
TTITLE2=Artistas varios - Franz Xaver Pokorny: Flute Concerto in D, Op. 27 (formerly attributed to Luigi Boccherini) - III. Rondeau (Allegretto)
TTITLE3=Artistas varios - String Quintet in E Op 13/5 - Minuet
TTITLE4=Artistas varios - Guitar Quintet No. 4 in D -"Fandango" - I. Pastorale
TTITLE5=Artistas varios - Guitar Quintet No. 4 in D -"Fandango" - II. Allegro maestoso
TTITLE6=Artistas varios - Guitar Quintet No. 4 in D -"Fandango" - III. Grave assai - Fandango
TTITLE7=Artistas varios - String Quartet in D, Op.6 No.1 - I. Allegro vivace
TTITLE8=Artistas varios - String Quartet in D, Op.6 No.1 - II. Adagio
TTITLE9=Artistas varios - String Quartet in D, Op.6 No.1 - III. Minuetto in Rondeau
TTITLE10=Artistas varios - Cello Concerto in B flat - I. Allegro moderato
TTITLE11=Artistas varios - Cello Concerto - II. Andantino grazioso
TTITLE12=Artistas varios - Cello Concerto - III. Rondo (Allegro)
EXTD=Doble volumen\n\nSeverino Gazzelloni - Maurice Gendron - Pepe Romero\nQuartetto Italiano - I Musici - ASMF Chamber Ensemble\nOrchestre des Concerts Lamoureux (Pablo Casals]\nNew Philharmonia Orchestra (Raymond Leppard)
EXTT0=\n
EXTT1=
EXTT2=
EXTT3=
EXTT4=Iona Brown and Malcom Latchem (violines), Stephen Shingles (viola), Denis Vigay (cello), Tristan Fry (sistrum and castanets)
EXTT5=Iona Brown and Malcom Latchem (violines), Stephen Shingles (viola), Denis Vigay (cello), Tristan Fry (sistrum and castanets)
EXTT6=Iona Brown and Malcom Latchem (violines), Stephen Shingles (viola), Denis Vigay (cello), Tristan Fry (sistrum and castanets)
EXTT7=Paolo Borciani and Elisa Pegreffi (violines), Piero Farulli (viola), Franco Rossi (cello)
EXTT8=Paolo Borciani and Elisa Pegreffi (violines), Piero Farulli (viola), Franco Rossi (cello)
EXTT9=Paolo Borciani and Elisa Pegreffi (violines), Piero Farulli (viola), Franco Rossi (cello)
EXTT10=
EXTT11=
EXTT12=
PLAYORDER=
